<svg xmlns="http://w3.org" width="300" height="300" viewBox="0 0 300 300">
  <g fill="none" stroke="rgba(255, 255, 255, 0.25)" stroke-width="1.2" stroke-linecap="round" stroke-linejoin="round">
    <!-- Диалоги и Облачка -->
    <path d="M20,25 L45,25 C49,25 52,28 52,32 L52,48 C52,52 49,55 45,55 L32,55 L22,63 L22,55 C18,55 15,52 15,48 L15,32 C15,28 18,25 20,25 Z" />
    <path d="M25,35 L42,35 M25,45 L35,45" />
    
    <!-- Сердечко -->
    <path d="M140,35 C135,25 120,25 115,35 C110,25 125,25 120,35 L127,45 Z" />

    <!-- Лампочка (Идея/Чат) -->
    <path d="M230,30 C220,30 215,38 215,45 C215,52 220,55 223,58 L223,65 L237,65 L237,58 C240,55 245,52 245,45 C245,38 240,30 230,30 Z" />
    <path d="M225,69 L235,69 M227,73 L233,73" />

    <!-- Кошачья лапка -->
    <circle cx="40" cy="130" r="10" />
    <circle cx="28" cy="112" r="4" />
    <circle cx="40" cy="106" r="4" />
    <circle cx="52" cy="112" r="4" />

    <!-- Будильник / Время ответа -->
    <circle cx="130" cy="130" r="14" />
    <path d="M130,122 L130,130 L138,130" />
    <path d="M116,114 L122,120 M144,114 L138,120 M122,143 L118,147 M138,143 L142,147" />

    <!-- Звёздочки и Искорки (Заполняющие элементы Telegram) -->
    <path d="M230,120 L230,132 M224,126 L236,126" />
    <path d="M245,140 L245,146 M242,143 L248,143" />
    <path d="M85,75 L85,85 M80,80 L90,80" />

    <!-- Летящий бумажный самолётик (Логотип) -->
    <path d="M30,220 L70,205 L55,245 L48,232 Z M48,232 L70,205 L55,245" />

    <!-- Котик / Мордочка животного -->
    <path d="M115,225 C115,235 125,245 135,245 C145,245 155,235 155,225 L150,210 L140,218 L130,218 L120,210 Z" />
    <circle cx="127" cy="228" r="1.5" />
    <circle cx="143" cy="228" r="1.5" />
    <path d="M132,233 L135,235 L138,233" />

    <!-- Знак вопроса (Техподдержка) -->
    <path d="M225,215 C225,205 240,205 240,215 C240,222 232,225 232,230" />
    <circle cx="232" cy="238" r="1.5" />
  </g>
</svg>


